{
    "asset": {
        "version": "2.0",
        "generator": "Open Asset Import Library (assimp v5.3.0)"
    },
    "extensionsUsed": [
        "KHR_materials_specular",
        "KHR_materials_volume",
        "FB_ngon_encoding"
    ],
    "accessors": [
        {
            "bufferView": 0,
            "byteOffset": 0,
            "componentType": 5126,
            "count": 29828,
            "type": "VEC3",
            "max": [
                0.04086079075932503,
                0.04100003093481064,
                0.07450009137392044
            ],
            "min": [
                -0.26087459921836855,
                -0.04099991172552109,
                -0.04268253594636917
            ]
        },
        {
            "bufferView": 1,
            "byteOffset": 0,
            "componentType": 5126,
            "count": 29828,
            "type": "VEC3",
            "max": [
                1.0,
                1.0,
                1.0
            ],
            "min": [
                -1.0,
                -1.0,
                -1.0
            ]
        },
        {
            "bufferView": 2,
            "byteOffset": 0,
            "componentType": 5125,
            "count": 34812,
            "type": "SCALAR",
            "max": [
                29827
            ],
            "min": [
                0
            ]
        }
    ],
    "buffers": [
        {
            "byteLength": 855120,
            "uri": "Link3.STL.bin"
        }
    ],
    "bufferViews": [
        {
            "buffer": 0,
            "byteOffset": 0,
            "byteLength": 357936,
            "target": 34962
        },
        {
            "buffer": 0,
            "byteOffset": 357936,
            "byteLength": 357936,
            "target": 34962
        },
        {
            "buffer": 0,
            "byteOffset": 715872,
            "byteLength": 139248,
            "target": 34963
        }
    ],
    "materials": [
        {
            "name": "DefaultMaterial",
            "pbrMetallicRoughness": {
                "metallicFactor": 0.0
            },
            "extensions": {
                "KHR_materials_specular": {
                    "specularFactor": 1.0,
                    "specularColorFactor": [
                        1.0,
                        1.0,
                        1.0
                    ]
                }
            }
        }
    ],
    "meshes": [
        {
            "primitives": [
                {
                    "mode": 4,
                    "material": 0,
                    "indices": 2,
                    "attributes": {
                        "POSITION": 0,
                        "NORMAL": 1
                    }
                }
            ]
        }
    ],
    "nodes": [
        {
            "name": "<STL_BINARY>",
            "children": [
                1
            ]
        },
        {
            "name": "node",
            "mesh": 0
        }
    ],
    "scenes": [
        {
            "nodes": [
                0
            ]
        }
    ],
    "scene": 0
}